HIERARCHY
ROOT Hips
{
  OFFSET 5.72205e-005 65.662 3.42586
  CHANNELS 6 Xposition Yposition Zposition Zrotation Xrotation Yrotation
  JOINT Chest
  {
    OFFSET 0 8.7983 -4.7612
    CHANNELS 6 Xposition Yposition Zposition Zrotation Xrotation Yrotation
    JOINT Chest2
    {
      OFFSET 0 8.0291 0.4195
      CHANNELS 6 Xposition Yposition Zposition Zrotation Xrotation Yrotation
      JOINT Chest3
      {
        OFFSET 0 9.9351 -2.2114
        CHANNELS 6 Xposition Yposition Zposition Zrotation Xrotation Yrotation
        JOINT Neck
        {
          OFFSET 0 22.3885 -0.4656
          CHANNELS 6 Xposition Yposition Zposition Zrotation Xrotation Yrotation
          JOINT Head
          {
            OFFSET -0.0001 12.643 3.4389
            CHANNELS 6 Xposition Yposition Zposition Zrotation Xrotation Yrotation
            End Site
            {
              OFFSET 0.0001 17.6655 0.5274
            }
          }
        }
        JOINT LeftCollar
        {
          OFFSET 2.2603 21.606 7.4023
          CHANNELS 6 Xposition Yposition Zposition Zrotation Xrotation Yrotation
          JOINT LeftShoulder
          {
            OFFSET 13.5163 -1.1332 -5.0146
            CHANNELS 6 Xposition Yposition Zposition Zrotation Xrotation Yrotation
            JOINT LeftElbow
            {
              OFFSET -0.0995 -28.05 -0.2431
              CHANNELS 6 Xposition Yposition Zposition Zrotation Xrotation Yrotation
              JOINT LeftWrist
              {
                OFFSET 0.0679 -23.3996 -0.1402
                CHANNELS 6 Xposition Yposition Zposition Zrotation Xrotation Yrotation
                JOINT LeftFinger1
                {
                  OFFSET 0.7932 -9.069 2.5189
                  CHANNELS 6 Xposition Yposition Zposition Zrotation Xrotation Yrotation
                  JOINT LeftFinger11
                  {
                    OFFSET -0.8272 -3.3923 0.5977
                    CHANNELS 6 Xposition Yposition Zposition Zrotation Xrotation Yrotation
                    JOINT LeftFinger12
                    {
                      OFFSET -0.5649 -2.3158 0.4082
                      CHANNELS 6 Xposition Yposition Zposition Zrotation Xrotation Yrotation
                      End Site
                      {
                        OFFSET -0.4919 -1.6479 0.2673
                      }
                    }
                  }
                }
                JOINT LeftFinger2
                {
                  OFFSET 0.9159 -9.2044 0.2193
                  CHANNELS 6 Xposition Yposition Zposition Zrotation Xrotation Yrotation
                  JOINT LeftFinger21
                  {
                    OFFSET 0.0117 -4.1944 -0.0248
                    CHANNELS 6 Xposition Yposition Zposition Zrotation Xrotation Yrotation
                    JOINT LeftFinger22
                    {
                      OFFSET 0.0071 -2.3249 -0.0142
                      CHANNELS 6 Xposition Yposition Zposition Zrotation Xrotation Yrotation
                      End Site
                      {
                        OFFSET -0.1475 -2.0882 0.0028
                      }
                    }
                  }
                }
                JOINT LeftFinger3
                {
                  OFFSET 0.6113 -8.7231 -2.0637
                  CHANNELS 6 Xposition Yposition Zposition Zrotation Xrotation Yrotation
                  JOINT LeftFinger31
                  {
                    OFFSET -0.1927 -3.8059 -0.2383
                    CHANNELS 6 Xposition Yposition Zposition Zrotation Xrotation Yrotation
                    JOINT LeftFinger32
                    {
                      OFFSET -0.1091 -2.1688 -0.1362
                      CHANNELS 6 Xposition Yposition Zposition Zrotation Xrotation Yrotation
                      End Site
                      {
                        OFFSET -0.2358 -1.9176 -0.0906
                      }
                    }
                  }
                }
                JOINT LeftFinger4
                {
                  OFFSET -0.6151 -8.0947 -3.5641
                  CHANNELS 6 Xposition Yposition Zposition Zrotation Xrotation Yrotation
                  JOINT LeftFinger41
                  {
                    OFFSET -0.4882 -2.341 -0.6462
                    CHANNELS 6 Xposition Yposition Zposition Zrotation Xrotation Yrotation
                    JOINT LeftFinger42
                    {
                      OFFSET -0.3575 -1.7167 -0.4742
                      CHANNELS 6 Xposition Yposition Zposition Zrotation Xrotation Yrotation
                      End Site
                      {
                        OFFSET -0.4187 -1.5237 -0.3496
                      }
                    }
                  }
                }
                JOINT LeftFinger0
                {
                  OFFSET -1.42 -1.8761 1.4223
                  CHANNELS 6 Xposition Yposition Zposition Zrotation Xrotation Yrotation
                  JOINT LeftFinger01
                  {
                    OFFSET -1.1471 -3.4929 2.6334
                    CHANNELS 6 Xposition Yposition Zposition Zrotation Xrotation Yrotation
                    JOINT LeftFinger02
                    {
                      OFFSET -0.823 -2.3 1.6571
                      CHANNELS 6 Xposition Yposition Zposition Zrotation Xrotation Yrotation
                      End Site
                      {
                        OFFSET -0.5822 -1.6914 1.1582
                      }
                    }
                  }
                }
              }
            }
          }
        }
        JOINT RightCollar
        {
          OFFSET -2.2603 21.606 7.4023
          CHANNELS 6 Xposition Yposition Zposition Zrotation Xrotation Yrotation
          JOINT RightShoulder
          {
            OFFSET -13.5187 -1.1334 -5.0155
            CHANNELS 6 Xposition Yposition Zposition Zrotation Xrotation Yrotation
            JOINT RightElbow
            {
              OFFSET 0.0994 -28.0499 -0.2431
              CHANNELS 6 Xposition Yposition Zposition Zrotation Xrotation Yrotation
              JOINT RightWrist
              {
                OFFSET -0.0679 -23.3996 -0.1402
                CHANNELS 6 Xposition Yposition Zposition Zrotation Xrotation Yrotation
                JOINT RightFinger1
                {
                  OFFSET -0.7932 -9.0691 2.5189
                  CHANNELS 6 Xposition Yposition Zposition Zrotation Xrotation Yrotation
                  JOINT RightFinger11
                  {
                    OFFSET 0.8272 -3.3923 0.5977
                    CHANNELS 6 Xposition Yposition Zposition Zrotation Xrotation Yrotation
                    JOINT RightFinger12
                    {
                      OFFSET 0.565 -2.3158 0.4082
                      CHANNELS 6 Xposition Yposition Zposition Zrotation Xrotation Yrotation
                      End Site
                      {
                        OFFSET 0.4919 -1.6479 0.2673
                      }
                    }
                  }
                }
                JOINT RightFinger2
                {
                  OFFSET -0.916 -9.2044 0.2193
                  CHANNELS 6 Xposition Yposition Zposition Zrotation Xrotation Yrotation
                  JOINT RightFinger21
                  {
                    OFFSET -0.0117 -4.1944 -0.0248
                    CHANNELS 6 Xposition Yposition Zposition Zrotation Xrotation Yrotation
                    JOINT RightFinger22
                    {
                      OFFSET -0.0071 -2.3249 -0.0142
                      CHANNELS 6 Xposition Yposition Zposition Zrotation Xrotation Yrotation
                      End Site
                      {
                        OFFSET 0.1475 -2.0882 0.0028
                      }
                    }
                  }
                }
                JOINT RightFinger3
                {
                  OFFSET -0.6113 -8.7231 -2.0637
                  CHANNELS 6 Xposition Yposition Zposition Zrotation Xrotation Yrotation
                  JOINT RightFinger31
                  {
                    OFFSET 0.1927 -3.8059 -0.2383
                    CHANNELS 6 Xposition Yposition Zposition Zrotation Xrotation Yrotation
                    JOINT RightFinger32
                    {
                      OFFSET 0.1091 -2.1688 -0.1362
                      CHANNELS 6 Xposition Yposition Zposition Zrotation Xrotation Yrotation
                      End Site
                      {
                        OFFSET 0.2358 -1.9176 -0.0906
                      }
                    }
                  }
                }
                JOINT RightFinger4
                {
                  OFFSET 0.6151 -8.0947 -3.564
                  CHANNELS 6 Xposition Yposition Zposition Zrotation Xrotation Yrotation
                  JOINT RightFinger41
                  {
                    OFFSET 0.4882 -2.341 -0.6462
                    CHANNELS 6 Xposition Yposition Zposition Zrotation Xrotation Yrotation
                    JOINT RightFinger42
                    {
                      OFFSET 0.3574 -1.7166 -0.4742
                      CHANNELS 6 Xposition Yposition Zposition Zrotation Xrotation Yrotation
                      End Site
                      {
                        OFFSET 0.4187 -1.5237 -0.3496
                      }
                    }
                  }
                }
                JOINT RightFinger0
                {
                  OFFSET 1.4199 -1.8761 1.4221
                  CHANNELS 6 Xposition Yposition Zposition Zrotation Xrotation Yrotation
                  JOINT RightFinger01
                  {
                    OFFSET 1.1472 -3.4929 2.6336
                    CHANNELS 6 Xposition Yposition Zposition Zrotation Xrotation Yrotation
                    JOINT RightFinger02
                    {
                      OFFSET 0.8229 -2.3 1.6571
                      CHANNELS 6 Xposition Yposition Zposition Zrotation Xrotation Yrotation
                      End Site
                      {
                        OFFSET 0.5822 -1.6914 1.1582
                      }
                    }
                  }
                }
              }
            }
          }
        }
      }
    }
  }
  JOINT RightHip
  {
    OFFSET -9.412 3.9771 -0.7758
    CHANNELS 6 Xposition Yposition Zposition Zrotation Xrotation Yrotation
    JOINT RightKnee
    {
      OFFSET -0.7531 -40.938 0
      CHANNELS 6 Xposition Yposition Zposition Zrotation Xrotation Yrotation
      JOINT RightAnkle
      {
        OFFSET 0 -40.1986 0
        CHANNELS 6 Xposition Yposition Zposition Zrotation Xrotation Yrotation
        JOINT RightToe
        {
          OFFSET 0 -4.4182 9.239
          CHANNELS 6 Xposition Yposition Zposition Zrotation Xrotation Yrotation
          End Site
          {
            OFFSET 0 0 6.1981
          }
        }
      }
    }
  }
  JOINT LeftHip
  {
    OFFSET 9.4119 3.9773 -0.7758
    CHANNELS 6 Xposition Yposition Zposition Zrotation Xrotation Yrotation
    JOINT LeftKnee
    {
      OFFSET 0.7532 -40.9383 0
      CHANNELS 6 Xposition Yposition Zposition Zrotation Xrotation Yrotation
      JOINT LeftAnkle
      {
        OFFSET 0 -40.1986 0
        CHANNELS 6 Xposition Yposition Zposition Zrotation Xrotation Yrotation
        JOINT LeftToe
        {
          OFFSET 0 -4.4182 9.239
          CHANNELS 6 Xposition Yposition Zposition Zrotation Xrotation Yrotation
          End Site
          {
            OFFSET 0 0 6.1981
          }
        }
      }
    }
  }
}
MOTION
Frames:	4
Frame Time:	0.0333333
5.72205e-005 65.662 3.42586 0 0 -0 0 8.7983 -4.7612 0 0 -0 0 8.0291 0.4195 0 0 -0 0 9.9351 -2.2114 0 0 -0 0 22.3885 -0.4656 0 0 -0 -0.0001 12.643 3.4389 0 0 -0 2.2603 21.606 7.4023 0 0 -12.5014 13.5163 -1.1332 -5.0146 88.1196 14.2451 10.6914 -0.0995 -28.05 -0.2431 -0.00160068 -0.00239207 0.000740045 0.0679 -23.3996 -0.1402 -8.4365e-005 7.00714e-005 -9.52055e-007 0.7932 -9.069 2.5189 9.93923e-017 -1.98785e-016 -1.59028e-015 -0.8272 -3.3923 0.5977 9.93923e-017 -5.96354e-016 -1.59028e-015 -0.5649 -2.3158 0.4082 -9.93923e-017 -5.96354e-016 -1.59028e-015 0.9159 -9.2044 0.2193 9.93923e-017 -1.98785e-016 -1.59028e-015 0.0117 -4.1944 -0.0248 -0.0128176 0.00232552 8.52707e-005 0.0071 -2.3249 -0.0142 9.93923e-017 5.96354e-016 -0 0.6113 -8.7231 -2.0637 9.93923e-017 -1.98785e-016 -1.59028e-015 -0.1927 -3.8059 -0.2383 -0.0160551 0.00299681 0.000857156 -0.1091 -2.1688 -0.1362 -2.48481e-016 0 3.18055e-015 -0.6151 -8.0947 -3.5641 9.93923e-017 -1.98785e-016 -1.59028e-015 -0.4882 -2.341 -0.6462 -0.0125865 0.0031206 0.00282719 -0.3575 -1.7167 -0.4742 0 1.98785e-016 -0 -1.42 -1.8761 1.4223 9.93923e-017 -1.98785e-016 -1.59028e-015 -1.1471 -3.4929 2.6334 9.93923e-017 -5.96354e-016 -1.59028e-015 -0.823 -2.3 1.6571 -9.93923e-017 -5.96354e-016 -1.59028e-015 -2.2603 21.606 7.4023 -0.865644 0.16582 7.03859 -13.5187 -1.1334 -5.0155 -88.0329 10.2057 -10.5567 0.0994 -28.0499 -0.2431 0.0015593 -0.00248883 -0.000788628 -0.0679 -23.3996 -0.1402 7.87605e-005 4.10553e-005 1.24965e-005 -0.7932 -9.0691 2.5189 -3.97569e-016 -7.95139e-016 3.18055e-015 0.8272 -3.3923 0.5977 -1.98785e-016 -3.97569e-016 3.18055e-015 0.565 -2.3158 0.4082 -1.98785e-016 0 3.18055e-015 -0.916 -9.2044 0.2193 -3.97569e-016 -7.95139e-016 3.18055e-015 -0.0117 -4.1944 -0.0248 0.0129473 0.00231697 -8.70038e-005 -0.0071 -2.3249 -0.0142 9.93923e-017 -7.95139e-016 1.59028e-015 -0.6113 -8.7231 -2.0637 -3.97569e-016 -7.95139e-016 3.18055e-015 0.1927 -3.8059 -0.2383 0.0163314 0.00303369 -0.000872333 0.1091 -2.1688 -0.1362 3.97569e-016 7.95139e-016 -3.18055e-015 0.6151 -8.0947 -3.564 -3.97569e-016 -7.95139e-016 3.18055e-015 0.4882 -2.341 -0.6462 0.0145763 0.00367772 -0.00326275 0.3574 -1.7166 -0.4742 9.93923e-017 -3.97569e-016 -0 1.4199 -1.8761 1.4221 -3.97569e-016 -7.95139e-016 3.18055e-015 1.1472 -3.4929 2.6336 -1.98785e-016 -3.97569e-016 3.18055e-015 0.8229 -2.3 1.6571 -1.98785e-016 0 3.18055e-015 -9.412 3.9771 -0.7758 3.42482 1.32465 -0.0626183 -0.7531 -40.938 0 0.000117508 0.717283 0.000978199 0 -40.1986 0 -3.4257 -2.04197 -0.0604716 8.88178e-016 -4.4182 9.239 6.47761e-025 0 -0 9.4119 3.9773 -0.7758 -3.42483 1.34017 0.0627307 0.7532 -40.9383 -2.22045e-016 -0.000193936 0.682302 -0.0013703 -8.88179e-016 -40.1986 0 3.42574 -2.02253 0.0595886 -8.88178e-016 -4.4182 9.239 -8.45714e-024 0 -7.40531e-025 
-0.689688 7.78181 5.14823 180 -85.9956 180 -1.11022e-016 8.7983 -4.7612 -0.295154 2.29978 -0.186456 -1.11022e-016 8.0291 0.4195 -0.583516 4.60048 -0.36148 0 9.9351 -2.2114 -0.583517 4.60048 -0.36148 -2.22045e-016 22.3885 -0.4656 1.09204e-005 -3.00269 6.67547e-006 -0.0001 12.643 3.4389 -3.09713e-007 7.99914 -2.48069e-007 2.2603 21.606 7.4023 -4.39743 -20.5217 5.05194 13.5163 -1.1332 -5.0146 179.192 -3.42528 -2.65626 -0.0995 -28.05 -0.2431 0.932582 -4.84997 0.749384 0.0679 -23.3996 -0.1402 -0.375696 19.7549 46.9832 0.7932 -9.069 2.5189 6.36111e-015 3.18055e-015 7.15625e-015 -0.8272 -3.3923 0.5977 -1.59028e-015 3.18055e-015 2.38542e-015 -0.5649 -2.3158 0.4082 1.59028e-015 -3.18055e-015 2.38542e-015 0.9159 -9.2044 0.2193 6.36111e-015 3.18055e-015 7.15625e-015 0.0117 -4.1944 -0.0248 -0.0128094 0.00232121 0.000102549 0.0071 -2.3249 -0.0142 -4.41391e-031 -1.59028e-014 -1.59028e-015 0.6113 -8.7231 -2.0637 6.36111e-015 3.18055e-015 7.15625e-015 -0.1927 -3.8059 -0.2383 -0.0160318 0.00299281 0.000865 -0.1091 -2.1688 -0.1362 3.18055e-015 0 1.11319e-014 -0.6151 -8.0947 -3.5641 6.36111e-015 3.18055e-015 7.15625e-015 -0.4882 -2.341 -0.6462 -0.0125883 0.00312521 0.00282609 -0.3575 -1.7167 -0.4742 -2.11868e-030 -1.27222e-014 -9.54166e-015 -1.42 -1.8761 1.4223 6.36111e-015 3.18055e-015 7.15625e-015 -1.1471 -3.4929 2.6334 -1.59028e-015 3.18055e-015 2.38542e-015 -0.823 -2.3 1.6571 1.59028e-015 -3.18055e-015 2.38542e-015 -2.2603 21.606 7.4023 3.47618 -20.0445 -10.9917 -13.5187 -1.1334 -5.0155 -179.711 -1.91097 -2.78002 0.0994 -28.0499 -0.2431 -0.955255 -4.82462 -0.84571 -0.0679 -23.3996 -0.1402 1.87844 20.1548 -47.3626 -0.7932 -9.0691 2.5189 1.59028e-015 -3.18055e-015 -7.95139e-015 0.8272 -3.3923 0.5977 1.59028e-015 -3.18055e-015 -1.35174e-014 0.565 -2.3158 0.4082 -1.59028e-015 3.18055e-015 -1.51076e-014 -0.916 -9.2044 0.2193 1.59028e-015 -3.18055e-015 -7.95139e-015 -0.0117 -4.1944 -0.0248 0.0129651 0.00231168 -9.66975e-005 -0.0071 -2.3249 -0.0142 -4.77083e-015 -1.59028e-014 -4.77083e-015 -0.6113 -8.7231 -2.0637 1.59028e-015 -3.18055e-015 -7.95139e-015 0.1927 -3.8059 -0.2383 0.0163569 0.00302904 -0.000878043 0.1091 -2.1688 -0.1362 1.59028e-015 -3.18055e-015 7.95139e-016 0.6151 -8.0947 -3.564 1.59028e-015 -3.18055e-015 -7.95139e-015 0.4882 -2.341 -0.6462 0.0145845 0.00367435 -0.00326871 0.3574 -1.7166 -0.4742 1.59028e-015 0 -1.03368e-014 1.4199 -1.8761 1.4221 1.59028e-015 -3.18055e-015 -7.95139e-015 1.1472 -3.4929 2.6336 1.59028e-015 -3.18055e-015 -1.35174e-014 0.8229 -2.3 1.6571 -1.59028e-015 3.18055e-015 -1.51076e-014 -9.412 3.9771 -0.7758 -90.8043 -48.1091 -122.062 -0.7531 -40.938 -3.88578e-015 0.651875 5.20931 9.84897 5.32907e-015 -40.1986 0 -12.9672 14.385 18.0057 5.32907e-015 -4.4182 9.239 -4.89584e-006 -1.2481e-006 -1.95562e-007 9.4119 3.9773 -0.7758 90.8616 -48.1888 122.079 0.7532 -40.9383 -1.77636e-015 -0.627348 5.20977 -9.851 -9.76996e-015 -40.1986 -3.10862e-015 12.7635 13.9002 -17.9473 8.88178e-015 -4.4182 9.239 5.17251e-006 -2.12453e-006 -6.52881e-007 
-0.689686 7.78247 5.16069 180 -85.9956 180 -1.11022e-016 8.7983 -4.7612 -0.295153 2.29977 -0.186455 0 8.0291 0.4195 -0.583512 4.60043 -0.361477 -1.11022e-016 9.9351 -2.2114 -0.583513 4.60044 -0.361478 -2.22045e-016 22.3885 -0.4656 5.7311e-007 -2.50299 8.24682e-007 -0.0001 12.643 3.4389 2.26295e-007 7.99913 -1.96493e-007 2.2603 21.606 7.4023 -4.39744 -20.5216 5.05194 13.5163 -1.1332 -5.0146 179.192 -3.42527 -2.65625 -0.0995 -28.05 -0.2431 0.932558 -4.85 0.749399 0.0679 -23.3996 -0.1402 -0.375675 19.7549 46.9831 0.7932 -9.069 2.5189 3.10058e-006 -8.93572e-008 1.2568e-006 -0.8272 -3.3923 0.5977 2.84391e-006 -1.92973e-006 3.35341e-006 -0.5649 -2.3158 0.4082 3.18055e-015 -3.18055e-015 -9.54166e-015 0.9159 -9.2044 0.2193 3.10058e-006 -8.93572e-008 1.2568e-006 0.0117 -4.1944 -0.0248 -0.012827 0.00232636 9.32225e-005 0.0071 -2.3249 -0.0142 4.77083e-015 0 4.77083e-015 0.6113 -8.7231 -2.0637 3.10058e-006 -8.93572e-008 1.2568e-006 -0.1927 -3.8059 -0.2383 -0.0160631 0.00299427 0.000869277 -0.1091 -2.1688 -0.1362 -8.82781e-032 -3.18055e-015 -1.59028e-015 -0.6151 -8.0947 -3.5641 3.10058e-006 -8.93572e-008 1.2568e-006 -0.4882 -2.341 -0.6462 -0.0125952 0.00312499 0.0028395 -0.3575 -1.7167 -0.4742 -3.53113e-031 6.36111e-015 3.18055e-015 -1.42 -1.8761 1.4223 3.10058e-006 -8.93572e-008 1.2568e-006 -1.1471 -3.4929 2.6334 2.84391e-006 -1.92973e-006 3.35341e-006 -0.823 -2.3 1.6571 3.18055e-015 -3.18055e-015 -9.54166e-015 -2.2603 21.606 7.4023 3.47617 -20.0444 -10.9917 -13.5187 -1.1334 -5.0155 -179.711 -1.91096 -2.78005 0.0994 -28.0499 -0.2431 -0.955258 -4.82465 -0.845727 -0.0679 -23.3996 -0.1402 1.87842 20.1549 -47.3626 -0.7932 -9.0691 2.5189 3.97252e-031 -9.54166e-015 2.38542e-015 0.8272 -3.3923 0.5977 -3.22442e-008 6.07678e-007 -3.0248e-006 0.565 -2.3158 0.4082 -3.18055e-015 -6.36111e-015 -0 -0.916 -9.2044 0.2193 3.97252e-031 -9.54166e-015 2.38542e-015 -0.0117 -4.1944 -0.0248 0.0129254 0.00231302 -9.22361e-005 -0.0071 -2.3249 -0.0142 8.82781e-032 -6.36111e-015 7.95139e-016 -0.6113 -8.7231 -2.0637 3.97252e-031 -9.54166e-015 2.38542e-015 0.1927 -3.8059 -0.2383 0.0163324 0.00303406 -0.000874508 0.1091 -2.1688 -0.1362 -1.59028e-015 0 -7.95139e-016 0.6151 -8.0947 -3.564 3.97252e-031 -9.54166e-015 2.38542e-015 0.4882 -2.341 -0.6462 0.0145692 0.00366674 -0.00327175 0.3574 -1.7166 -0.4742 -1.59028e-015 -3.18055e-015 -1.03368e-014 1.4199 -1.8761 1.4221 3.97252e-031 -9.54166e-015 2.38542e-015 1.1472 -3.4929 2.6336 -3.22442e-008 6.07678e-007 -3.0248e-006 0.8229 -2.3 1.6571 -3.18055e-015 -6.36111e-015 -0 -9.412 3.9771 -0.7758 -90.6221 -48.1926 -121.933 -0.7531 -40.938 0 0.652181 5.49193 9.85099 1.77636e-015 -40.1986 -5.32907e-015 -12.9562 14.5087 18.022 2.66454e-015 -4.4182 9.239 2.8206e-007 1.67623e-007 -8.00191e-007 9.4119 3.9773 -0.7758 90.679 -48.2725 121.95 0.7532 -40.9383 -3.44169e-015 -0.627615 5.49212 -9.85286 -7.10543e-015 -40.1986 -8.88178e-016 12.7522 14.0239 -17.9633 0 -4.4182 9.239 1.85737e-005 2.56911e-006 -1.93122e-006 
-0.689683 7.78306 5.17309 -180 -85.9956 -180 0 8.7983 -4.7612 -0.295151 2.29975 -0.186454 0 8.0291 0.4195 -0.583508 4.6004 -0.361475 0 9.9351 -2.2114 -0.58351 4.60043 -0.361476 2.22045e-016 22.3885 -0.4656 -8.88886e-006 -2.00313 -5.66718e-006 -0.0001 12.643 3.4389 2.20619e-007 7.99913 5.67932e-007 2.2603 21.606 7.4023 -4.39745 -20.5215 5.05194 13.5163 -1.1332 -5.0146 179.192 -3.4253 -2.65625 -0.0995 -28.05 -0.2431 0.932615 -4.84996 0.749384 0.0679 -23.3996 -0.1402 -0.375702 19.7549 46.9831 0.7932 -9.069 2.5189 -0 0 6.36111e-015 -0.8272 -3.3923 0.5977 -4.48167e-006 -8.43786e-006 9.25118e-006 -0.5649 -2.3158 0.4082 6.36111e-015 6.36111e-015 5.56597e-015 0.9159 -9.2044 0.2193 -0 0 6.36111e-015 0.0117 -4.1944 -0.0248 -0.0128162 0.0023135 0.00010273 0.0071 -2.3249 -0.0142 -3.18055e-015 -3.18055e-015 3.97569e-015 0.6113 -8.7231 -2.0637 -0 0 6.36111e-015 -0.1927 -3.8059 -0.2383 -0.0160546 0.00299191 0.000864609 -0.1091 -2.1688 -0.1362 1.59028e-015 6.36111e-015 1.03368e-014 -0.6151 -8.0947 -3.5641 -0 0 6.36111e-015 -0.4882 -2.341 -0.6462 -0.0125643 0.00310875 0.00283582 -0.3575 -1.7167 -0.4742 0 0 -7.95139e-015 -1.42 -1.8761 1.4223 -0 0 6.36111e-015 -1.1471 -3.4929 2.6334 -4.48167e-006 -8.43786e-006 9.25118e-006 -0.823 -2.3 1.6571 6.36111e-015 6.36111e-015 5.56597e-015 -2.2603 21.606 7.4023 3.47616 -20.0443 -10.9917 -13.5187 -1.1334 -5.0155 -179.711 -1.91095 -2.77999 0.0994 -28.0499 -0.2431 -0.955239 -4.82461 -0.845733 -0.0679 -23.3996 -0.1402 1.87843 20.1548 -47.3627 -0.7932 -9.0691 2.5189 3.18055e-015 0 7.95139e-016 0.8272 -3.3923 0.5977 -1.59028e-015 -6.36111e-015 -3.97569e-015 0.565 -2.3158 0.4082 1.59028e-015 -9.54166e-015 4.77083e-015 -0.916 -9.2044 0.2193 3.18055e-015 0 7.95139e-016 -0.0117 -4.1944 -0.0248 0.0129544 0.00232181 -9.28084e-005 -0.0071 -2.3249 -0.0142 3.18055e-015 0 7.95139e-016 -0.6113 -8.7231 -2.0637 3.18055e-015 0 7.95139e-016 0.1927 -3.8059 -0.2383 0.0163248 0.00302247 -0.000871486 0.1091 -2.1688 -0.1362 -1.59028e-015 -3.18055e-015 -1.59028e-015 0.6151 -8.0947 -3.564 3.18055e-015 0 7.95139e-016 0.4882 -2.341 -0.6462 0.0145769 0.00368166 -0.00326569 0.3574 -1.7166 -0.4742 3.18055e-015 3.18055e-015 -2.38542e-015 1.4199 -1.8761 1.4221 3.18055e-015 0 7.95139e-016 1.1472 -3.4929 2.6336 -1.59028e-015 -6.36111e-015 -3.97569e-015 0.8229 -2.3 1.6571 1.59028e-015 -9.54166e-015 4.77083e-015 -9.412 3.9771 -0.7758 -90.4282 -48.2805 -121.795 -0.7531 -40.938 1.66533e-015 0.652454 5.75718 9.85382 -2.66454e-015 -40.1986 -8.88178e-016 -12.944 14.6409 18.0395 -8.88179e-016 -4.4182 9.239 2.60934e-006 -1.15422e-006 -2.48669e-007 9.4119 3.9773 -0.7758 90.485 -48.3604 121.812 0.7532 -40.9383 -4.44089e-016 -0.627908 5.75764 -9.8555 1.24345e-014 -40.1986 1.77636e-015 12.7398 14.156 -17.9805 0 -4.4182 9.239 -5.22066e-006 -9.99963e-007 5.43811e-007 
